<svg xmlns="http://www.w3.org/2000/svg" xmlns:xlink="http://www.w3.org/1999/xlink" version="1.1" viewBox="0 0 15 15"><desc>Created with Sketch.</desc><g id="form_mapping-data-model-_!" fill="none" fill-rule="evenodd" stroke="none" stroke-width="1"><g id="code-actions" transform="translate(-398.000000, -612.000000)"><g id="mapping_data_model_settings"><g id="Form" transform="translate(369.000000, 140.000000)"><g id="settings" transform="translate(0.000000, 238.000000)"><g id="Group-9" transform="translate(10.000000, 63.000000)"><g id="Group-5" transform="translate(0.000000, 160.000000)"><path id="Rectangle-8" fill="#465662" d="M27,18 L27,15.5 C27,15.2238576 26.7761424,15 26.5,15 C26.2238576,15 26,15.2238576 26,15.5 L26,15.5 L26,18 L23.5,18 L23.5,18 C23.2238576,18 23,18.2238576 23,18.5 C23,18.7761424 23.2238576,19 23.5,19 L26,19 L26,21.5 C26,21.7761424 26.2238576,22 26.5,22 C26.7761424,22 27,21.7761424 27,21.5 L27,19 L29.5,19 C29.7761424,19 30,18.7761424 30,18.5 C30,18.2238576 29.7761424,18 29.5,18 L27,18 Z"/><circle id="Oval-5" cx="26.5" cy="18.5" r="6.5" stroke="#465662"/></g></g></g></g></g></g></g></svg>